<mxfile host="app.diagrams.net" modified="2024-01-13T17:19:00.926Z" agent="Mozilla/5.0 (Macintosh; Intel Mac OS X 10_15_7) AppleWebKit/605.1.15 (KHTML, like Gecko) Version/17.1.2 Safari/605.1.15" etag="9YATXKmkKF0LYgAjkmaw" version="22.1.18" type="github">
  <diagram name="Page-1" id="2YBvvXClWsGukQMizWep">
    <mxGraphModel dx="1332" dy="794" grid="1" gridSize="10" guides="1" tooltips="1" connect="1" arrows="1" fold="1" page="1" pageScale="1" pageWidth="850" pageHeight="1100" math="0" shadow="0">
      <root>
        <mxCell id="0" />
        <mxCell id="1" parent="0" />
        <mxCell id="VWB2yuzXGD5sFF1-zxoG-4" value="" style="whiteSpace=wrap;html=1;fontSize=16;" parent="1" vertex="1">
          <mxGeometry x="90" y="100" width="10" height="730" as="geometry" />
        </mxCell>
        <mxCell id="VWB2yuzXGD5sFF1-zxoG-6" value="Member" style="shape=process;whiteSpace=wrap;html=1;backgroundOutline=1;fontSize=16;" parent="1" vertex="1">
          <mxGeometry x="40" y="20" width="120" height="60" as="geometry" />
        </mxCell>
        <mxCell id="VWB2yuzXGD5sFF1-zxoG-11" value="Menu" style="shape=umlLifeline;perimeter=lifelinePerimeter;whiteSpace=wrap;html=1;container=0;dropTarget=0;collapsible=0;recursiveResize=0;outlineConnect=0;portConstraint=eastwest;newEdgeStyle={&quot;edgeStyle&quot;:&quot;elbowEdgeStyle&quot;,&quot;elbow&quot;:&quot;vertical&quot;,&quot;curved&quot;:0,&quot;rounded&quot;:0};fontSize=16;" parent="1" vertex="1">
          <mxGeometry x="220" y="40" width="100" height="790" as="geometry" />
        </mxCell>
        <mxCell id="VWB2yuzXGD5sFF1-zxoG-12" value="" style="html=1;points=[];perimeter=orthogonalPerimeter;outlineConnect=0;targetShapes=umlLifeline;portConstraint=eastwest;newEdgeStyle={&quot;edgeStyle&quot;:&quot;elbowEdgeStyle&quot;,&quot;elbow&quot;:&quot;vertical&quot;,&quot;curved&quot;:0,&quot;rounded&quot;:0};fontSize=16;" parent="VWB2yuzXGD5sFF1-zxoG-11" vertex="1">
          <mxGeometry x="45" y="70" width="10" height="720" as="geometry" />
        </mxCell>
        <mxCell id="VWB2yuzXGD5sFF1-zxoG-15" value="Struct" style="shape=umlLifeline;perimeter=lifelinePerimeter;whiteSpace=wrap;html=1;container=0;dropTarget=0;collapsible=0;recursiveResize=0;outlineConnect=0;portConstraint=eastwest;newEdgeStyle={&quot;edgeStyle&quot;:&quot;elbowEdgeStyle&quot;,&quot;elbow&quot;:&quot;vertical&quot;,&quot;curved&quot;:0,&quot;rounded&quot;:0};fontSize=16;" parent="1" vertex="1">
          <mxGeometry x="400" y="40" width="100" height="790" as="geometry" />
        </mxCell>
        <mxCell id="VWB2yuzXGD5sFF1-zxoG-16" value="" style="html=1;points=[];perimeter=orthogonalPerimeter;outlineConnect=0;targetShapes=umlLifeline;portConstraint=eastwest;newEdgeStyle={&quot;edgeStyle&quot;:&quot;elbowEdgeStyle&quot;,&quot;elbow&quot;:&quot;vertical&quot;,&quot;curved&quot;:0,&quot;rounded&quot;:0};fontSize=16;" parent="VWB2yuzXGD5sFF1-zxoG-15" vertex="1">
          <mxGeometry x="45" y="70" width="10" height="720" as="geometry" />
        </mxCell>
        <mxCell id="VWB2yuzXGD5sFF1-zxoG-22" value="3. Song hinzufügen" style="edgeStyle=none;orthogonalLoop=1;jettySize=auto;html=1;rounded=0;fontSize=12;startSize=8;endSize=8;curved=1;exitX=1;exitY=0.433;exitDx=0;exitDy=0;exitPerimeter=0;" parent="1" edge="1">
          <mxGeometry x="0.0909" width="140" relative="1" as="geometry">
            <mxPoint x="100" y="239.99999999999994" as="sourcePoint" />
            <mxPoint x="265" y="240.2" as="targetPoint" />
            <Array as="points">
              <mxPoint x="190" y="240" />
            </Array>
            <mxPoint as="offset" />
          </mxGeometry>
        </mxCell>
        <mxCell id="VWB2yuzXGD5sFF1-zxoG-23" value="Funktion aufrufen" style="edgeStyle=none;orthogonalLoop=1;jettySize=auto;html=1;rounded=0;fontSize=10;startSize=8;endSize=8;curved=1;" parent="1" source="VWB2yuzXGD5sFF1-zxoG-12" target="VWB2yuzXGD5sFF1-zxoG-16" edge="1">
          <mxGeometry width="140" relative="1" as="geometry">
            <mxPoint x="280" y="189.75" as="sourcePoint" />
            <mxPoint x="440" y="190" as="targetPoint" />
            <Array as="points">
              <mxPoint x="360" y="190" />
            </Array>
          </mxGeometry>
        </mxCell>
        <mxCell id="VWB2yuzXGD5sFF1-zxoG-24" value="Bib. gespeichert" style="edgeStyle=none;orthogonalLoop=1;jettySize=auto;html=1;rounded=0;fontSize=10;startSize=8;endSize=8;curved=1;" parent="1" source="VWB2yuzXGD5sFF1-zxoG-16" target="VWB2yuzXGD5sFF1-zxoG-12" edge="1">
          <mxGeometry width="140" relative="1" as="geometry">
            <mxPoint x="290" y="210" as="sourcePoint" />
            <mxPoint x="430" y="210" as="targetPoint" />
            <Array as="points">
              <mxPoint x="360" y="230" />
            </Array>
          </mxGeometry>
        </mxCell>
        <mxCell id="VWB2yuzXGD5sFF1-zxoG-25" value="5. Song löschen" style="edgeStyle=none;orthogonalLoop=1;jettySize=auto;html=1;rounded=0;fontSize=12;startSize=8;endSize=8;curved=1;" parent="1" edge="1">
          <mxGeometry width="140" relative="1" as="geometry">
            <mxPoint x="100" y="530" as="sourcePoint" />
            <mxPoint x="265" y="530" as="targetPoint" />
            <Array as="points" />
          </mxGeometry>
        </mxCell>
        <mxCell id="VWB2yuzXGD5sFF1-zxoG-26" value="Parameter eingeben" style="edgeStyle=none;orthogonalLoop=1;jettySize=auto;html=1;rounded=0;fontSize=10;startSize=8;endSize=8;curved=1;entryX=1;entryY=0.267;entryDx=0;entryDy=0;entryPerimeter=0;" parent="1" edge="1">
          <mxGeometry width="140" relative="1" as="geometry">
            <mxPoint x="265" y="270.00000000000006" as="sourcePoint" />
            <mxPoint x="100" y="270.00000000000006" as="targetPoint" />
            <Array as="points" />
          </mxGeometry>
        </mxCell>
        <mxCell id="VWB2yuzXGD5sFF1-zxoG-27" value="Parameter gespeichert" style="edgeStyle=none;orthogonalLoop=1;jettySize=auto;html=1;rounded=0;fontSize=10;startSize=8;endSize=8;curved=1;" parent="1" edge="1">
          <mxGeometry width="140" relative="1" as="geometry">
            <mxPoint x="444.9999999999998" y="359.9999999999999" as="sourcePoint" />
            <mxPoint x="275" y="360" as="targetPoint" />
            <Array as="points" />
          </mxGeometry>
        </mxCell>
        <mxCell id="VWB2yuzXGD5sFF1-zxoG-28" value="4. Metadaten bearbeiten" style="edgeStyle=none;orthogonalLoop=1;jettySize=auto;html=1;rounded=0;fontSize=12;startSize=8;endSize=8;curved=1;" parent="1" edge="1">
          <mxGeometry x="-0.0303" width="140" relative="1" as="geometry">
            <mxPoint x="100" y="380" as="sourcePoint" />
            <mxPoint x="265" y="380" as="targetPoint" />
            <Array as="points" />
            <mxPoint as="offset" />
          </mxGeometry>
        </mxCell>
        <mxCell id="VWB2yuzXGD5sFF1-zxoG-29" value="2. Bib. speichern" style="edgeStyle=none;orthogonalLoop=1;jettySize=auto;html=1;rounded=0;fontSize=12;startSize=8;endSize=8;curved=1;exitX=1;exitY=0.577;exitDx=0;exitDy=0;exitPerimeter=0;" parent="1" edge="1">
          <mxGeometry width="140" relative="1" as="geometry">
            <mxPoint x="100" y="180" as="sourcePoint" />
            <mxPoint x="265" y="180" as="targetPoint" />
            <Array as="points" />
          </mxGeometry>
        </mxCell>
        <mxCell id="VWB2yuzXGD5sFF1-zxoG-30" value="6. Bibliothek durchsuchen" style="edgeStyle=none;orthogonalLoop=1;jettySize=auto;html=1;rounded=0;fontSize=12;startSize=8;endSize=8;curved=1;" parent="1" edge="1">
          <mxGeometry x="-0.0303" width="140" relative="1" as="geometry">
            <mxPoint x="100" y="680" as="sourcePoint" />
            <mxPoint x="265" y="680" as="targetPoint" />
            <Array as="points">
              <mxPoint x="200" y="680" />
            </Array>
            <mxPoint as="offset" />
          </mxGeometry>
        </mxCell>
        <mxCell id="VWB2yuzXGD5sFF1-zxoG-32" value="Zu bearbeitende Daten eingeben" style="edgeStyle=none;orthogonalLoop=1;jettySize=auto;html=1;rounded=0;fontSize=8;startSize=8;endSize=8;curved=1;" parent="1" target="VWB2yuzXGD5sFF1-zxoG-12" edge="1">
          <mxGeometry width="140" relative="1" as="geometry">
            <mxPoint x="100" y="460" as="sourcePoint" />
            <mxPoint x="250" y="460" as="targetPoint" />
            <Array as="points" />
          </mxGeometry>
        </mxCell>
        <mxCell id="VWB2yuzXGD5sFF1-zxoG-33" value="Frage welche Daten bearbeitet werden" style="edgeStyle=none;orthogonalLoop=1;jettySize=auto;html=1;rounded=0;fontSize=8;startSize=8;endSize=8;curved=1;" parent="1" source="VWB2yuzXGD5sFF1-zxoG-12" edge="1">
          <mxGeometry width="140" relative="1" as="geometry">
            <mxPoint x="250" y="420" as="sourcePoint" />
            <mxPoint x="100" y="420" as="targetPoint" />
            <Array as="points" />
          </mxGeometry>
        </mxCell>
        <mxCell id="VWB2yuzXGD5sFF1-zxoG-35" value="Neue Daten übergeben" style="edgeStyle=none;orthogonalLoop=1;jettySize=auto;html=1;rounded=0;fontSize=10;startSize=8;endSize=8;curved=1;" parent="1" edge="1">
          <mxGeometry width="140" relative="1" as="geometry">
            <mxPoint x="275" y="470" as="sourcePoint" />
            <mxPoint x="445" y="470" as="targetPoint" />
            <Array as="points" />
          </mxGeometry>
        </mxCell>
        <mxCell id="VWB2yuzXGD5sFF1-zxoG-36" value="Daten gespeichert" style="edgeStyle=none;orthogonalLoop=1;jettySize=auto;html=1;rounded=0;fontSize=10;startSize=8;endSize=8;curved=1;" parent="1" edge="1">
          <mxGeometry width="140" relative="1" as="geometry">
            <mxPoint x="445" y="510" as="sourcePoint" />
            <mxPoint x="275" y="510" as="targetPoint" />
            <Array as="points" />
          </mxGeometry>
        </mxCell>
        <mxCell id="VWB2yuzXGD5sFF1-zxoG-37" value="Titel &amp;amp; Künstler übergeben" style="edgeStyle=none;orthogonalLoop=1;jettySize=auto;html=1;rounded=0;fontSize=10;startSize=8;endSize=8;curved=1;" parent="1" edge="1">
          <mxGeometry width="140" relative="1" as="geometry">
            <mxPoint x="275" y="620" as="sourcePoint" />
            <mxPoint x="445" y="620" as="targetPoint" />
            <Array as="points" />
          </mxGeometry>
        </mxCell>
        <mxCell id="VWB2yuzXGD5sFF1-zxoG-38" value="Titel gelöscht" style="edgeStyle=none;orthogonalLoop=1;jettySize=auto;html=1;rounded=0;fontSize=10;startSize=8;endSize=8;curved=1;" parent="1" edge="1">
          <mxGeometry width="140" relative="1" as="geometry">
            <mxPoint x="445" y="660" as="sourcePoint" />
            <mxPoint x="275" y="660" as="targetPoint" />
            <Array as="points" />
          </mxGeometry>
        </mxCell>
        <mxCell id="VWB2yuzXGD5sFF1-zxoG-47" value="1. Bib. laden" style="edgeStyle=none;orthogonalLoop=1;jettySize=auto;html=1;rounded=0;fontSize=12;startSize=8;endSize=8;curved=1;exitX=1;exitY=0.023;exitDx=0;exitDy=0;exitPerimeter=0;" parent="1" source="VWB2yuzXGD5sFF1-zxoG-4" target="VWB2yuzXGD5sFF1-zxoG-12" edge="1">
          <mxGeometry width="140" relative="1" as="geometry">
            <mxPoint x="110" y="110" as="sourcePoint" />
            <mxPoint x="250" y="110" as="targetPoint" />
            <Array as="points" />
          </mxGeometry>
        </mxCell>
        <mxCell id="VWB2yuzXGD5sFF1-zxoG-48" value="Funktion aufrufen" style="edgeStyle=none;orthogonalLoop=1;jettySize=auto;html=1;rounded=0;fontSize=10;startSize=8;endSize=8;curved=1;" parent="1" edge="1">
          <mxGeometry width="140" relative="1" as="geometry">
            <mxPoint x="275" y="120" as="sourcePoint" />
            <mxPoint x="445" y="120" as="targetPoint" />
            <Array as="points" />
          </mxGeometry>
        </mxCell>
        <mxCell id="VWB2yuzXGD5sFF1-zxoG-49" value="Bib. geladen" style="edgeStyle=none;orthogonalLoop=1;jettySize=auto;html=1;rounded=0;fontSize=10;startSize=8;endSize=8;curved=1;" parent="1" edge="1">
          <mxGeometry width="140" relative="1" as="geometry">
            <mxPoint x="445" y="160" as="sourcePoint" />
            <mxPoint x="275" y="160" as="targetPoint" />
            <Array as="points" />
          </mxGeometry>
        </mxCell>
        <mxCell id="VWB2yuzXGD5sFF1-zxoG-53" value="Parameter eingegeben" style="edgeStyle=none;orthogonalLoop=1;jettySize=auto;html=1;rounded=0;fontSize=10;startSize=8;endSize=8;curved=1;" parent="1" target="VWB2yuzXGD5sFF1-zxoG-12" edge="1">
          <mxGeometry width="140" relative="1" as="geometry">
            <mxPoint x="100" y="310" as="sourcePoint" />
            <mxPoint x="240" y="310" as="targetPoint" />
            <Array as="points" />
          </mxGeometry>
        </mxCell>
        <mxCell id="VWB2yuzXGD5sFF1-zxoG-54" value="Parameter übergeben" style="edgeStyle=none;orthogonalLoop=1;jettySize=auto;html=1;rounded=0;fontSize=10;startSize=8;endSize=8;curved=1;" parent="1" edge="1">
          <mxGeometry width="140" relative="1" as="geometry">
            <mxPoint x="275" y="320" as="sourcePoint" />
            <mxPoint x="445" y="320" as="targetPoint" />
            <Array as="points" />
          </mxGeometry>
        </mxCell>
        <mxCell id="VWB2yuzXGD5sFF1-zxoG-55" value="Titel &amp;amp; Künstler&amp;nbsp;eingegeben" style="edgeStyle=none;orthogonalLoop=1;jettySize=auto;html=1;rounded=0;fontSize=10;startSize=8;endSize=8;curved=1;" parent="1" edge="1">
          <mxGeometry width="140" relative="1" as="geometry">
            <mxPoint x="100" y="610" as="sourcePoint" />
            <mxPoint x="265" y="610" as="targetPoint" />
            <Array as="points" />
          </mxGeometry>
        </mxCell>
        <mxCell id="VWB2yuzXGD5sFF1-zxoG-56" value="Welcher Song?" style="edgeStyle=none;orthogonalLoop=1;jettySize=auto;html=1;rounded=0;fontSize=10;startSize=8;endSize=8;curved=1;" parent="1" edge="1">
          <mxGeometry width="140" relative="1" as="geometry">
            <mxPoint x="265" y="570" as="sourcePoint" />
            <mxPoint x="100" y="570" as="targetPoint" />
            <Array as="points" />
          </mxGeometry>
        </mxCell>
        <mxCell id="VWB2yuzXGD5sFF1-zxoG-58" value="Suchbegriff eingegeben" style="edgeStyle=none;orthogonalLoop=1;jettySize=auto;html=1;rounded=0;fontSize=10;startSize=8;endSize=8;curved=1;" parent="1" edge="1">
          <mxGeometry width="140" relative="1" as="geometry">
            <mxPoint x="100" y="760" as="sourcePoint" />
            <mxPoint x="265" y="760" as="targetPoint" />
            <Array as="points" />
          </mxGeometry>
        </mxCell>
        <mxCell id="VWB2yuzXGD5sFF1-zxoG-59" value="Suchbegriff eingeben" style="edgeStyle=none;orthogonalLoop=1;jettySize=auto;html=1;rounded=0;fontSize=10;startSize=8;endSize=8;curved=1;" parent="1" edge="1">
          <mxGeometry width="140" relative="1" as="geometry">
            <mxPoint x="265" y="720" as="sourcePoint" />
            <mxPoint x="100" y="720" as="targetPoint" />
            <Array as="points" />
          </mxGeometry>
        </mxCell>
        <mxCell id="VWB2yuzXGD5sFF1-zxoG-60" value="Begriff suchen" style="edgeStyle=none;orthogonalLoop=1;jettySize=auto;html=1;rounded=0;fontSize=10;startSize=8;endSize=8;curved=1;" parent="1" edge="1">
          <mxGeometry width="140" relative="1" as="geometry">
            <mxPoint x="275" y="770" as="sourcePoint" />
            <mxPoint x="445" y="770" as="targetPoint" />
            <Array as="points" />
            <mxPoint as="offset" />
          </mxGeometry>
        </mxCell>
        <mxCell id="VWB2yuzXGD5sFF1-zxoG-61" value="Rückgabe Suchergebnis" style="edgeStyle=none;orthogonalLoop=1;jettySize=auto;html=1;rounded=0;fontSize=10;startSize=8;endSize=8;curved=1;" parent="1" source="VWB2yuzXGD5sFF1-zxoG-16" edge="1">
          <mxGeometry width="140" relative="1" as="geometry">
            <mxPoint x="440" y="810" as="sourcePoint" />
            <mxPoint x="276" y="810" as="targetPoint" />
            <Array as="points" />
          </mxGeometry>
        </mxCell>
      </root>
    </mxGraphModel>
  </diagram>
</mxfile>
